<svg xmlns="http://www.w3.org/2000/svg" xmlns:svg="http://www.w3.org/2000/svg" id="svg2" width="210mm" height="297mm" version="1.1" viewBox="0 0 744.094 1052.362"><metadata id="metadata7"/><g id="layer1"><g id="g4871" transform="translate(28,-88)"><g id="g4887" transform="translate(38.537319,-2.4748737)"><g id="g4167" transform="matrix(4.2249515,0,0,4.2249515,2039.1992,-1426.0141)"><flowRoot style="font-style:normal;font-variant:normal;font-weight:400;font-stretch:normal;font-size:40px;line-height:125%;font-family:'Roboto Condensed';-inkscape-font-specification:'Roboto Condensed, ';letter-spacing:0;word-spacing:0;fill:#18a66f;fill-opacity:1;stroke:none;stroke-width:1px;stroke-linecap:butt;stroke-linejoin:miter;stroke-opacity:1" id="flowRoot4136" transform="translate(108.19006,13.095096)" xml:space="preserve"><flowRegion id="flowRegion4138"><rect style="font-style:normal;font-variant:normal;font-weight:400;font-stretch:normal;font-family:'Roboto Condensed';-inkscape-font-specification:'Roboto Condensed, ';fill:#18a66f;fill-opacity:1" id="rect4140" width="85.357" height="57.5" x="-768.571" y="395.219"/></flowRegion><flowPara style="font-style:normal;font-variant:normal;font-weight:400;font-stretch:normal;font-family:'Roboto Condensed';-inkscape-font-specification:'Roboto Condensed, ';fill:#18a66f;fill-opacity:1" id="flowPara4142">BET</flowPara></flowRoot><flowRoot style="font-style:normal;font-variant:normal;font-weight:400;font-stretch:normal;font-size:40px;line-height:125%;font-family:'Roboto Condensed';-inkscape-font-specification:'Roboto Condensed, ';letter-spacing:0;word-spacing:0;fill:#117a52;fill-opacity:1;stroke:none;stroke-width:1px;stroke-linecap:butt;stroke-linejoin:miter;stroke-opacity:1" id="flowRoot4136-6" transform="translate(214.1759,13.095096)" xml:space="preserve"><flowRegion id="flowRegion4138-4"><rect style="font-style:normal;font-variant:normal;font-weight:400;font-stretch:normal;font-family:'Roboto Condensed';-inkscape-font-specification:'Roboto Condensed, ';fill:#117a52;fill-opacity:1" id="rect4140-0" width="85.357" height="57.5" x="-768.571" y="395.219"/></flowRegion><flowPara style="font-style:normal;font-variant:normal;font-weight:400;font-stretch:normal;font-family:'Roboto Condensed';-inkscape-font-specification:'Roboto Condensed, ';fill:#117a52;fill-opacity:1" id="flowPara4142-4">KEN</flowPara></flowRoot><path id="path4168" d="m -576.9967,417.00586 a 18.571428,18.571428 0 0 0 -18.57227,18.57031 18.571428,18.571428 0 0 0 18.57227,18.57227 18.571428,18.571428 0 0 0 18.57226,-18.57227 18.571428,18.571428 0 0 0 -18.57226,-18.57031 z m 0,1.91992 a 16.650471,16.650471 0 0 1 16.65039,16.65039 16.650471,16.650471 0 0 1 -16.65039,16.65039 16.650471,16.650471 0 0 1 -16.65039,-16.65039 16.650471,16.650471 0 0 1 16.65039,-16.65039 z" style="color:#000;clip-rule:nonzero;display:inline;overflow:visible;visibility:visible;opacity:1;isolation:auto;mix-blend-mode:normal;color-interpolation:sRGB;color-interpolation-filters:linearRGB;solid-color:#000;solid-opacity:1;fill:#117a52;fill-opacity:1;fill-rule:nonzero;stroke:none;stroke-width:11;stroke-linecap:butt;stroke-linejoin:miter;stroke-miterlimit:4;stroke-dasharray:none;stroke-dashoffset:0;stroke-opacity:1;color-rendering:auto;image-rendering:auto;shape-rendering:auto;text-rendering:auto;enable-background:accumulate"/><circle id="path4186" cx="-576.997" cy="435.577" r="14.214" style="color:#000;clip-rule:nonzero;display:inline;overflow:visible;visibility:visible;opacity:1;isolation:auto;mix-blend-mode:normal;color-interpolation:sRGB;color-interpolation-filters:linearRGB;solid-color:#000;solid-opacity:1;fill:#1cc886;fill-opacity:1;fill-rule:nonzero;stroke:none;stroke-width:11;stroke-linecap:butt;stroke-linejoin:miter;stroke-miterlimit:4;stroke-dasharray:none;stroke-dashoffset:0;stroke-opacity:1;color-rendering:auto;image-rendering:auto;shape-rendering:auto;text-rendering:auto;enable-background:accumulate"/><g id="g4863" transform="matrix(0.42058166,0,0,0.42058166,-337.47545,248.76491)" style="fill:#18a66f;fill-opacity:1"><g id="g4867" style="fill:#18a66f;fill-opacity:1"><path id="path4841-6" d="m -569.4375,415.04971 -17.25,28.5 17,10.25 17.375,-10.125 z" style="fill:#18a66f;fill-opacity:1;fill-rule:evenodd;stroke:none;stroke-width:1px;stroke-linecap:butt;stroke-linejoin:miter;stroke-opacity:1"/><path id="path4843-9" d="m -586.4375,446.92471 17,10.125 16.875,-9.875 -16.625,23.75 z" style="fill:#18a66f;fill-opacity:1;fill-rule:evenodd;stroke:none;stroke-width:1px;stroke-linecap:butt;stroke-linejoin:miter;stroke-opacity:1"/></g></g></g><g id="g5009" transform="translate(-30,17.5)"><g id="g5017" transform="translate(-32.75,1.25)"><g id="g5025"><g id="g5035" transform="translate(24.571961,-17.324116)"><g id="g4183" transform="matrix(4.2249515,0,0,4.2249515,1916.0769,-1421.4156)"><circle id="path4903" cx="-602.701" cy="505.911" r="28.107" style="color:#000;clip-rule:nonzero;display:inline;overflow:visible;visibility:visible;opacity:1;isolation:auto;mix-blend-mode:normal;color-interpolation:sRGB;color-interpolation-filters:linearRGB;solid-color:#000;solid-opacity:1;fill:#def7ed;fill-opacity:1;fill-rule:nonzero;stroke:#18a66f;stroke-width:2;stroke-linecap:butt;stroke-linejoin:miter;stroke-miterlimit:4;stroke-dasharray:none;stroke-dashoffset:0;stroke-opacity:1;color-rendering:auto;image-rendering:auto;shape-rendering:auto;text-rendering:auto;enable-background:accumulate"/><circle id="path4903-3" cx="-602.701" cy="505.911" r="23.971" style="color:#000;clip-rule:nonzero;display:inline;overflow:visible;visibility:visible;opacity:1;isolation:auto;mix-blend-mode:normal;color-interpolation:sRGB;color-interpolation-filters:linearRGB;solid-color:#000;solid-opacity:1;fill:#1cc886;fill-opacity:1;fill-rule:nonzero;stroke:none;stroke-width:11;stroke-linecap:butt;stroke-linejoin:miter;stroke-miterlimit:4;stroke-dasharray:none;stroke-dashoffset:0;stroke-opacity:1;color-rendering:auto;image-rendering:auto;shape-rendering:auto;text-rendering:auto;enable-background:accumulate"/><path id="path4903-3-8" d="m -607.02718,489.4716 a 17.348541,17.348541 0 0 0 -10.88203,21.98882 17.348541,17.348541 0 0 0 21.98881,10.88202 17.348541,17.348541 0 0 0 9.34044,-7.57574 l -4.6821,-1.74645 a 12.459227,12.459227 0 0 1 -6.22347,4.69016 12.459227,12.459227 0 0 1 -15.79164,-7.81511 12.459227,12.459227 0 0 1 7.81512,-15.79166 12.459227,12.459227 0 0 1 14.05658,4.48783 l 3.66496,-3.24918 a 17.348541,17.348541 0 0 0 -19.28667,-5.87069 z" style="color:#000;clip-rule:nonzero;display:inline;overflow:visible;visibility:visible;opacity:1;isolation:auto;mix-blend-mode:normal;color-interpolation:sRGB;color-interpolation-filters:linearRGB;solid-color:#000;solid-opacity:1;fill:#0c5338;fill-opacity:1;fill-rule:nonzero;stroke:none;stroke-width:11;stroke-linecap:butt;stroke-linejoin:miter;stroke-miterlimit:4;stroke-dasharray:none;stroke-dashoffset:0;stroke-opacity:1;color-rendering:auto;image-rendering:auto;shape-rendering:auto;text-rendering:auto;enable-background:accumulate"/><path id="path4903-3-1" d="m -600.76556,476.86734 c 15.28242,0.95838 27.18779,13.63054 27.19165,28.94298 -0.0176,15.30241 -11.43309,28.1802 -26.70551,29.13794 l 17.69975,-21.6305 -7.68046,-2.49506 -13.51628,-4.68699 c 7.72359,-1.94817 13.33886,-5.3377 19.18785,-10.3583 z" style="color:#000;clip-rule:nonzero;display:inline;overflow:visible;visibility:visible;opacity:.35;isolation:auto;mix-blend-mode:normal;color-interpolation:sRGB;color-interpolation-filters:linearRGB;solid-color:#000;solid-opacity:1;fill:#fff;fill-opacity:1;fill-rule:nonzero;stroke:none;stroke-width:11;stroke-linecap:butt;stroke-linejoin:miter;stroke-miterlimit:4;stroke-dasharray:none;stroke-dashoffset:0;stroke-opacity:1;color-rendering:auto;image-rendering:auto;shape-rendering:auto;text-rendering:auto;enable-background:accumulate"/><path id="path4903-3-1-5" d="m -604.66257,476.87485 c -15.28242,0.95838 -27.18779,13.63053 -27.19165,28.94297 0.0176,15.30241 11.83084,28.09181 27.10326,29.04955 l -19.71859,-27.57511 z" style="color:#000;clip-rule:nonzero;display:inline;overflow:visible;visibility:visible;opacity:.35;isolation:auto;mix-blend-mode:normal;color-interpolation:sRGB;color-interpolation-filters:linearRGB;solid-color:#000;solid-opacity:1;fill:#000;fill-opacity:1;fill-rule:nonzero;stroke:none;stroke-width:11;stroke-linecap:butt;stroke-linejoin:miter;stroke-miterlimit:4;stroke-dasharray:none;stroke-dashoffset:0;stroke-opacity:1;color-rendering:auto;image-rendering:auto;shape-rendering:auto;text-rendering:auto;enable-background:accumulate"/><circle id="path5007" cx="-601.066" cy="506.308" r="8.795" style="color:#000;clip-rule:nonzero;display:inline;overflow:visible;visibility:visible;opacity:1;isolation:auto;mix-blend-mode:normal;color-interpolation:sRGB;color-interpolation-filters:linearRGB;solid-color:#000;solid-opacity:1;fill:#6bdbb0;fill-opacity:1;fill-rule:nonzero;stroke:none;stroke-width:2;stroke-linecap:butt;stroke-linejoin:miter;stroke-miterlimit:4;stroke-dasharray:none;stroke-dashoffset:0;stroke-opacity:1;color-rendering:auto;image-rendering:auto;shape-rendering:auto;text-rendering:auto;enable-background:accumulate"/></g></g></g></g></g></g></g></g></svg>